<?xml version="1.0" encoding="UTF-8"?>
<svg id="a" data-name="Layer 3" xmlns="http://www.w3.org/2000/svg" width="100.17" height="52.98" viewBox="0 0 100.17 52.98">
  <path d="M35.7,36.09l12.93,16.9h-12.06L18.28,29.38l9.38,.06c2.84,0,5.28-.77,7.33-2.3,2.13-1.53,3.15-3.42,3.15-5.59s-1.02-3.94-3.15-5.48c-2.05-1.53-4.49-2.3-7.33-2.3H6.62l-1.18-.88L0,5.89H27.66c5.75,0,10.72,1.53,14.82,4.59,4.1,3.12,6.15,6.77,6.15,11.07,0,3.3-1.18,6.24-3.7,8.89-2.44,2.65-5.52,4.53-9.22,5.65Z" style="fill: #231f20;"/>
  <path d="M91.5,5.89v7.89h-20.96V52.98h-10.56V5.89h31.52Z" style="fill: #231f20;"/>
</svg>